<?xml version="1.0" standalone="no"?><!-- Generator: Gravit.io --><svg xmlns="http://www.w3.org/2000/svg" xmlns:xlink="http://www.w3.org/1999/xlink" style="isolation:isolate" viewBox="1148 61 24 24" width="24" height="24"><path d=" M 1165.1526586620926 76.09433962264151 L 1164.0617495711836 76.09433962264151 L 1163.6843910806174 75.71698113207547 C 1165.0291595197255 74.15951972555746 1165.8387650085763 72.13550600343054 1165.8387650085763 69.91938250428817 C 1165.8387650085763 64.99313893653516 1161.8456260720411 61 1156.919382504288 61 C 1151.9931389365352 61 1148 64.99313893653516 1148 69.91938250428817 C 1148 74.84562607204117 1151.9931389365352 78.83876500857633 1156.919382504288 78.83876500857633 C 1159.1355060034305 78.83876500857633 1161.1595197255574 78.02915951972557 1162.7169811320755 76.69125214408234 L 1163.0943396226414 77.06861063464838 L 1163.0943396226414 78.15265866209263 L 1169.9554030874785 85 L 1172 82.95540308747857 L 1165.1526586620926 76.09433962264151 Z  M 1156.919382504288 76.09433962264151 C 1153.5094339622642 76.09433962264151 1150.7444253859348 73.32933104631218 1150.7444253859348 69.91938250428817 C 1150.7444253859348 66.50943396226415 1153.5094339622642 63.744425385934825 1156.919382504288 63.744425385934825 C 1160.329331046312 63.744425385934825 1163.0943396226414 66.50943396226415 1163.0943396226414 69.91938250428817 C 1163.0943396226414 73.32933104631218 1160.329331046312 76.09433962264151 1156.919382504288 76.09433962264151 Z " fill-rule="evenodd" fill="rgb(70,70,70)" stroke-width="2.083333333333334" stroke="rgba(0,0,0,0)" stroke-linejoin="miter" stroke-linecap="butt"/></svg>